<?xml version="1.0" encoding="UTF-8"?><svg id="Warstwa_2" xmlns="http://www.w3.org/2000/svg" xmlns:xlink="http://www.w3.org/1999/xlink" viewBox="0 0 179.41 143.36"><defs><clipPath id="clippath"><rect x="75" y="45.61" width=".5" height=".39" fill="none"/></clipPath><clipPath id="clippath-1"><rect x="75" y="45.61" width=".5" height=".39" fill="none"/></clipPath><clipPath id="clippath-2"><rect x="75" y="45.61" width=".5" height=".39" fill="none"/></clipPath><clipPath id="clippath-3"><rect x="75.36" y="45.72" width=".14" height=".14" fill="none"/></clipPath><clipPath id="clippath-4"><rect x="75" y="45.61" width=".18" height=".18" fill="none"/></clipPath><clipPath id="clippath-5"><rect x="75.21" y="45.87" width=".14" height=".14" fill="none"/></clipPath><clipPath id="clippath-6"><rect x="75.25" y="45.76" width=".14" height=".14" fill="none"/></clipPath><clipPath id="clippath-7"><rect x="75.36" y="45.66" width=".14" height=".14" fill="none"/></clipPath><clipPath id="clippath-8"><rect x="75.15" y="45.66" width=".09" height=".09" fill="none"/></clipPath><clipPath id="clippath-9"><rect x="75.04" y="45.76" width=".24" height=".24" fill="none"/></clipPath></defs><g id="Warstwa_1-2"><g id="Kompozycja_4"><g clip-path="url(#clippath)"><g clip-path="url(#clippath-1)"><g clip-path="url(#clippath-2)"><path d="M75.31,45.86l-.06.06s-.04-.04-.06-.06c0,0,0,0,0,0,.02.01.04.04.06.05h0s.05-.05.05-.05c0,0,0,0,0,0" fill="#fff"/><polyline points="75.35 45.8 75.31 45.77 75.31 45.75 75.35 45.72 75.36 45.72 75.4 45.75 75.4 45.77 75.36 45.8 75.35 45.8" fill="#1d9cb2"/><g opacity=".55"><g clip-path="url(#clippath-3)"><polyline points="75.39 45.85 75.36 45.82 75.36 45.81 75.45 45.72 75.46 45.72 75.49 45.75 75.49 45.76 75.4 45.85 75.39 45.85" fill="#1d9cb2"/></g></g><path d="M75.17,45.85l-.03-.03s0-.01,0-.02l.19-.19s.01,0,.02,0l.03.03s0,.01,0,.02l-.19.19s-.01,0-.02,0" fill="#1d9cb2"/><g opacity=".19"><g clip-path="url(#clippath-4)"><polyline points="75.03 45.79 75 45.76 75 45.75 75.13 45.62 75.15 45.62 75.17 45.64 75.17 45.66 75.04 45.79 75.03 45.79" fill="#1d9cb2"/></g></g><g opacity=".55"><g clip-path="url(#clippath-5)"><polyline points="75.24 46 75.21 45.97 75.21 45.96 75.3 45.87 75.31 45.87 75.34 45.9 75.34 45.91 75.25 46 75.24 46" fill="#1d9cb2"/></g></g><g opacity=".55"><g clip-path="url(#clippath-6)"><polyline points="75.39 45.87 75.36 45.9 75.35 45.9 75.26 45.81 75.26 45.79 75.29 45.77 75.3 45.77 75.39 45.86 75.39 45.87" fill="#1d9cb2"/></g></g><g opacity=".55"><g clip-path="url(#clippath-7)"><polyline points="75.49 45.76 75.46 45.79 75.45 45.79 75.36 45.7 75.36 45.69 75.39 45.66 75.4 45.66 75.49 45.75 75.49 45.76" fill="#1d9cb2"/></g></g><g opacity=".55"><g clip-path="url(#clippath-8)"><polyline points="75.23 45.72 75.2 45.75 75.19 45.75 75.15 45.7 75.15 45.69 75.18 45.66 75.19 45.66 75.23 45.71 75.23 45.72" fill="#1d9cb2"/></g></g><g opacity=".72"><g clip-path="url(#clippath-9)"><path d="M75.04,45.79l.03-.03s.01,0,.01,0l.19.19s0,.01,0,.01l-.03.03s-.01,0-.01,0l-.19-.19s0-.01,0-.01" fill="#1d9cb2"/></g></g><polyline points="75.13 45.8 75.1 45.76 75.1 45.75 75.13 45.71 75.15 45.71 75.18 45.75 75.18 45.76 75.15 45.8 75.13 45.8" fill="#1d9cb2"/><path d="M75.19,45.95l-.03-.03s0-.01,0-.02l.08-.08s.01,0,.02,0l.03.03s0,.01,0,.02l-.08.08s-.01,0-.02,0" fill="#1d9cb2"/></g></g></g></g><path d="M124.69,33.08l7.21,7.21,7.21,7.21,7.21,7.21M16.54,40.29l7.21,7.21,7.21,7.21,7.21,7.21,7.21,7.21,7.21,7.21M38.17,90.76l-7.21-7.21-7.21-7.21-7.21-7.21-7.21-7.21-7.21-7.21M88.64,141.23l-7.21-7.21-7.21-7.21-7.21-7.21-7.21-7.21-7.21-7.21M139.11,18.66l7.21,7.21,7.21,7.21,7.21,7.21M52.59,4.24l7.21,7.21,7.21,7.21,7.21,7.21,7.21,7.21,7.21,7.21M38.17,18.66l7.21,7.21,7.21,7.21,7.21,7.21,7.21,7.21,7.21,7.21M2.12,54.71l7.21-7.21,7.21-7.21,7.21-7.21,7.21-7.21,7.21-7.21,7.21-7.21,7.21-7.21M67.01,18.66l-7.21,7.21-7.21,7.21-7.21,7.21-7.21,7.21-7.21,7.21-7.21,7.21-7.21,7.21M67.01,90.76l7.21-7.21,7.21-7.21,7.21-7.21,7.21,7.21,7.21,7.21,7.21,7.21M103.05,54.75l-14.37,14.35M74.22,126.81l7.21-7.21,7.21-7.21M88.64,141.23l7.21-7.21,7.21-7.21,7.21-7.21,7.21-7.21,7.21-7.21" fill="none" stroke="#fff" stroke-miterlimit="10" stroke-width="6"/><polygon points="175.16 54.71 167.95 61.92 160.75 69.14 153.53 76.34 146.32 83.55 139.11 90.76 131.9 97.97 124.69 105.18 110.27 90.76 103.06 97.97 95.85 105.18 88.64 112.39 81.43 105.18 74.22 97.97 67.01 90.76 52.59 105.18 45.38 97.97 38.17 90.76 45.38 83.55 52.59 76.34 59.8 69.14 67.01 61.92 74.22 54.71 81.43 47.5 88.64 40.29 95.85 33.08 103.06 25.87 110.27 18.66 117.48 11.45 124.69 4.24 131.9 11.45 139.11 18.66 131.9 25.88 124.69 33.08 110.27 47.51 103.05 54.75 110.27 61.92 117.48 69.14 124.69 76.34 131.9 69.14 139.11 61.92 146.32 54.71 153.53 47.51 160.74 40.29 167.95 47.51 175.16 54.71" fill="none" stroke="#fff" stroke-miterlimit="10" stroke-width="6"/></g></svg>